<?xml version="1.0" encoding="utf-8"?>
<!-- Svg Vector Icons : http://www.onlinewebfonts.com/icon -->
<!DOCTYPE svg PUBLIC "-//W3C//DTD SVG 1.1//EN" "http://www.w3.org/Graphics/SVG/1.1/DTD/svg11.dtd">
<svg version="1.1" xmlns="http://www.w3.org/2000/svg" xmlns:xlink="http://www.w3.org/1999/xlink" x="0px" y="0px" viewBox="0 0 1000 1000" enable-background="new 0 0 1000 1000" xml:space="preserve">
<metadata> Svg Vector Icons : http://www.onlinewebfonts.com/icon </metadata>
<g><path d="M500,990C229.8,990,10,770.2,10,500C10,229.8,229.8,10,500,10c270.2,0,490,219.8,490,490C990,770.2,770.2,990,500,990z M501.3,86.8c-229.9,0-417,187.1-417,417.1c0,230,187.1,417.1,417,417.1c230,0,417.1-187.1,417.1-417.1C918.3,273.9,731.3,86.8,501.3,86.8z"/><path d="M729.4,291.5H280.8c-9.7,0-17.5,7.8-17.5,17.5v93.2c0,9.6,7.8,17.5,17.5,17.5h448.6c9.7,0,17.5-7.8,17.5-17.5v-93.2C746.9,299.3,739.1,291.5,729.4,291.5z"/><path d="M729.4,448.7H280.8c-9.7,0-17.5,7.8-17.5,17.5v93.2c0,9.6,7.8,17.5,17.5,17.5h448.6c9.7,0,17.5-7.8,17.5-17.5v-93.2C746.9,456.5,739.1,448.7,729.4,448.7z"/><path d="M729.4,606H280.8c-9.7,0-17.5,7.8-17.5,17.5v93.2c0,9.7,7.8,17.5,17.5,17.5h448.6c9.7,0,17.5-7.8,17.5-17.5v-93.2C746.9,613.8,739.1,606,729.4,606z"/></g>
</svg>